<mxfile host="app.diagrams.net" modified="2023-12-02T18:26:49.835Z" agent="Mozilla/5.0 (Windows NT 10.0; Win64; x64) AppleWebKit/537.36 (KHTML, like Gecko) Chrome/118.0.0.0 Safari/537.36 OPR/104.0.0.0" etag="81ll-h9GeLd3Xn0n2y0f" version="22.1.5" type="github">
  <diagram name="Página-1" id="Kyzij5bcBLk1cjqX6Q2O">
    <mxGraphModel dx="1393" dy="766" grid="1" gridSize="10" guides="1" tooltips="1" connect="1" arrows="1" fold="1" page="1" pageScale="1" pageWidth="583" pageHeight="827" math="0" shadow="0">
      <root>
        <mxCell id="0" />
        <mxCell id="1" parent="0" />
        <mxCell id="10nZllxXcGLsS7aEzpjF-1" value="&lt;font style=&quot;font-size: 18px;&quot;&gt;Receitas&lt;/font&gt;" style="ellipse;whiteSpace=wrap;html=1;" vertex="1" parent="1">
          <mxGeometry x="430" y="130" width="180" height="120" as="geometry" />
        </mxCell>
        <mxCell id="10nZllxXcGLsS7aEzpjF-2" value="&lt;font style=&quot;font-size: 16px;&quot;&gt;Ingredientes&lt;/font&gt;" style="ellipse;whiteSpace=wrap;html=1;" vertex="1" parent="1">
          <mxGeometry x="550" y="364" width="150" height="100" as="geometry" />
        </mxCell>
        <mxCell id="10nZllxXcGLsS7aEzpjF-3" value="Regiões" style="ellipse;whiteSpace=wrap;html=1;" vertex="1" parent="1">
          <mxGeometry x="325" y="330" width="105" height="70" as="geometry" />
        </mxCell>
        <mxCell id="10nZllxXcGLsS7aEzpjF-4" value="Categorias" style="ellipse;whiteSpace=wrap;html=1;" vertex="1" parent="1">
          <mxGeometry x="205" y="170" width="105" height="70" as="geometry" />
        </mxCell>
        <mxCell id="10nZllxXcGLsS7aEzpjF-5" value="Componente&lt;br&gt;Químico" style="ellipse;whiteSpace=wrap;html=1;" vertex="1" parent="1">
          <mxGeometry x="760" y="560" width="105" height="70" as="geometry" />
        </mxCell>
        <mxCell id="10nZllxXcGLsS7aEzpjF-6" value="Nutrientes" style="ellipse;whiteSpace=wrap;html=1;" vertex="1" parent="1">
          <mxGeometry x="850" y="430" width="105" height="70" as="geometry" />
        </mxCell>
        <mxCell id="10nZllxXcGLsS7aEzpjF-7" value="Grupo" style="ellipse;whiteSpace=wrap;html=1;" vertex="1" parent="1">
          <mxGeometry x="540" y="630" width="105" height="70" as="geometry" />
        </mxCell>
        <mxCell id="10nZllxXcGLsS7aEzpjF-8" value="" style="endArrow=classic;html=1;rounded=0;exitX=0;exitY=0.5;exitDx=0;exitDy=0;entryX=1;entryY=0.5;entryDx=0;entryDy=0;" edge="1" parent="1" source="10nZllxXcGLsS7aEzpjF-1" target="10nZllxXcGLsS7aEzpjF-4">
          <mxGeometry width="50" height="50" relative="1" as="geometry">
            <mxPoint x="510" y="460" as="sourcePoint" />
            <mxPoint x="560" y="410" as="targetPoint" />
          </mxGeometry>
        </mxCell>
        <mxCell id="10nZllxXcGLsS7aEzpjF-16" value="&lt;u&gt;Se dividem&lt;/u&gt;" style="edgeLabel;html=1;align=center;verticalAlign=middle;resizable=0;points=[];" vertex="1" connectable="0" parent="10nZllxXcGLsS7aEzpjF-8">
          <mxGeometry x="0.0564" relative="1" as="geometry">
            <mxPoint as="offset" />
          </mxGeometry>
        </mxCell>
        <mxCell id="10nZllxXcGLsS7aEzpjF-9" value="" style="endArrow=classic;html=1;rounded=0;exitX=0;exitY=1;exitDx=0;exitDy=0;" edge="1" parent="1" source="10nZllxXcGLsS7aEzpjF-1" target="10nZllxXcGLsS7aEzpjF-3">
          <mxGeometry width="50" height="50" relative="1" as="geometry">
            <mxPoint x="510" y="460" as="sourcePoint" />
            <mxPoint x="560" y="410" as="targetPoint" />
          </mxGeometry>
        </mxCell>
        <mxCell id="10nZllxXcGLsS7aEzpjF-15" value="&lt;u&gt;Possuem&lt;/u&gt;" style="edgeLabel;html=1;align=center;verticalAlign=middle;resizable=0;points=[];" vertex="1" connectable="0" parent="10nZllxXcGLsS7aEzpjF-9">
          <mxGeometry x="0.0095" y="-1" relative="1" as="geometry">
            <mxPoint y="-1" as="offset" />
          </mxGeometry>
        </mxCell>
        <mxCell id="10nZllxXcGLsS7aEzpjF-10" value="" style="endArrow=classic;html=1;rounded=0;exitX=1;exitY=1;exitDx=0;exitDy=0;entryX=0.5;entryY=0;entryDx=0;entryDy=0;" edge="1" parent="1" source="10nZllxXcGLsS7aEzpjF-1" target="10nZllxXcGLsS7aEzpjF-2">
          <mxGeometry width="50" height="50" relative="1" as="geometry">
            <mxPoint x="510" y="460" as="sourcePoint" />
            <mxPoint x="560" y="410" as="targetPoint" />
          </mxGeometry>
        </mxCell>
        <mxCell id="10nZllxXcGLsS7aEzpjF-14" value="&lt;u&gt;Contém&lt;/u&gt;" style="edgeLabel;html=1;align=center;verticalAlign=middle;resizable=0;points=[];" vertex="1" connectable="0" parent="10nZllxXcGLsS7aEzpjF-10">
          <mxGeometry x="-0.1601" y="2" relative="1" as="geometry">
            <mxPoint as="offset" />
          </mxGeometry>
        </mxCell>
        <mxCell id="10nZllxXcGLsS7aEzpjF-11" value="" style="endArrow=classic;html=1;rounded=0;exitX=0.5;exitY=1;exitDx=0;exitDy=0;entryX=0.5;entryY=0;entryDx=0;entryDy=0;" edge="1" parent="1" source="10nZllxXcGLsS7aEzpjF-2" target="10nZllxXcGLsS7aEzpjF-7">
          <mxGeometry width="50" height="50" relative="1" as="geometry">
            <mxPoint x="710" y="510" as="sourcePoint" />
            <mxPoint x="760" y="460" as="targetPoint" />
          </mxGeometry>
        </mxCell>
        <mxCell id="10nZllxXcGLsS7aEzpjF-21" value="&lt;u&gt;Se dividem&lt;/u&gt;" style="edgeLabel;html=1;align=center;verticalAlign=middle;resizable=0;points=[];" vertex="1" connectable="0" parent="10nZllxXcGLsS7aEzpjF-11">
          <mxGeometry x="-0.0058" relative="1" as="geometry">
            <mxPoint as="offset" />
          </mxGeometry>
        </mxCell>
        <mxCell id="10nZllxXcGLsS7aEzpjF-12" value="" style="endArrow=classic;html=1;rounded=0;exitX=1;exitY=1;exitDx=0;exitDy=0;entryX=0;entryY=0;entryDx=0;entryDy=0;" edge="1" parent="1" source="10nZllxXcGLsS7aEzpjF-2" target="10nZllxXcGLsS7aEzpjF-5">
          <mxGeometry width="50" height="50" relative="1" as="geometry">
            <mxPoint x="710" y="510" as="sourcePoint" />
            <mxPoint x="760" y="460" as="targetPoint" />
          </mxGeometry>
        </mxCell>
        <mxCell id="10nZllxXcGLsS7aEzpjF-20" value="&lt;u&gt;Composto&lt;/u&gt;" style="edgeLabel;html=1;align=center;verticalAlign=middle;resizable=0;points=[];" vertex="1" connectable="0" parent="10nZllxXcGLsS7aEzpjF-12">
          <mxGeometry x="-0.1369" y="-1" relative="1" as="geometry">
            <mxPoint as="offset" />
          </mxGeometry>
        </mxCell>
        <mxCell id="10nZllxXcGLsS7aEzpjF-13" value="" style="endArrow=classic;html=1;rounded=0;entryX=0;entryY=0.5;entryDx=0;entryDy=0;exitX=1;exitY=0.5;exitDx=0;exitDy=0;" edge="1" parent="1" source="10nZllxXcGLsS7aEzpjF-2" target="10nZllxXcGLsS7aEzpjF-6">
          <mxGeometry width="50" height="50" relative="1" as="geometry">
            <mxPoint x="740" y="414" as="sourcePoint" />
            <mxPoint x="790" y="364" as="targetPoint" />
          </mxGeometry>
        </mxCell>
        <mxCell id="10nZllxXcGLsS7aEzpjF-19" value="&lt;u&gt;Contém&lt;/u&gt;" style="edgeLabel;html=1;align=center;verticalAlign=middle;resizable=0;points=[];" vertex="1" connectable="0" parent="10nZllxXcGLsS7aEzpjF-13">
          <mxGeometry x="-0.2163" y="3" relative="1" as="geometry">
            <mxPoint as="offset" />
          </mxGeometry>
        </mxCell>
        <mxCell id="10nZllxXcGLsS7aEzpjF-58" style="edgeStyle=orthogonalEdgeStyle;rounded=0;orthogonalLoop=1;jettySize=auto;html=1;exitX=0.1;exitY=0.5;exitDx=0;exitDy=0;exitPerimeter=0;entryX=1;entryY=0.5;entryDx=0;entryDy=0;endArrow=none;endFill=0;strokeWidth=2;" edge="1" parent="1" source="10nZllxXcGLsS7aEzpjF-22" target="10nZllxXcGLsS7aEzpjF-1">
          <mxGeometry relative="1" as="geometry" />
        </mxCell>
        <mxCell id="10nZllxXcGLsS7aEzpjF-22" value="" style="shape=curlyBracket;whiteSpace=wrap;html=1;rounded=1;labelPosition=left;verticalLabelPosition=middle;align=right;verticalAlign=middle;strokeWidth=2;" vertex="1" parent="1">
          <mxGeometry x="650" y="117.5" width="8.33" height="50" as="geometry" />
        </mxCell>
        <mxCell id="10nZllxXcGLsS7aEzpjF-36" style="edgeStyle=orthogonalEdgeStyle;rounded=0;orthogonalLoop=1;jettySize=auto;html=1;exitX=0.1;exitY=0.5;exitDx=0;exitDy=0;exitPerimeter=0;entryX=0;entryY=0.5;entryDx=0;entryDy=0;endArrow=none;endFill=0;strokeWidth=2;" edge="1" parent="1" source="10nZllxXcGLsS7aEzpjF-23" target="10nZllxXcGLsS7aEzpjF-4">
          <mxGeometry relative="1" as="geometry" />
        </mxCell>
        <mxCell id="10nZllxXcGLsS7aEzpjF-23" value="" style="shape=curlyBracket;whiteSpace=wrap;html=1;rounded=1;flipH=1;labelPosition=right;verticalLabelPosition=middle;align=left;verticalAlign=middle;strokeWidth=2;" vertex="1" parent="1">
          <mxGeometry x="180" y="177.5" width="9.16" height="55" as="geometry" />
        </mxCell>
        <mxCell id="10nZllxXcGLsS7aEzpjF-35" style="edgeStyle=orthogonalEdgeStyle;rounded=0;orthogonalLoop=1;jettySize=auto;html=1;exitX=0.1;exitY=0.5;exitDx=0;exitDy=0;exitPerimeter=0;entryX=0;entryY=0.5;entryDx=0;entryDy=0;endArrow=none;endFill=0;strokeWidth=2;" edge="1" parent="1" source="10nZllxXcGLsS7aEzpjF-24" target="10nZllxXcGLsS7aEzpjF-3">
          <mxGeometry relative="1" as="geometry" />
        </mxCell>
        <mxCell id="10nZllxXcGLsS7aEzpjF-24" value="" style="shape=curlyBracket;whiteSpace=wrap;html=1;rounded=1;flipH=1;labelPosition=right;verticalLabelPosition=middle;align=left;verticalAlign=middle;strokeWidth=2;" vertex="1" parent="1">
          <mxGeometry x="300.84" y="340" width="8.74" height="52.5" as="geometry" />
        </mxCell>
        <mxCell id="10nZllxXcGLsS7aEzpjF-39" style="edgeStyle=orthogonalEdgeStyle;rounded=0;orthogonalLoop=1;jettySize=auto;html=1;exitX=0.1;exitY=0.5;exitDx=0;exitDy=0;exitPerimeter=0;entryX=1;entryY=0.5;entryDx=0;entryDy=0;endArrow=none;endFill=0;strokeWidth=2;" edge="1" parent="1" source="10nZllxXcGLsS7aEzpjF-26" target="10nZllxXcGLsS7aEzpjF-5">
          <mxGeometry relative="1" as="geometry" />
        </mxCell>
        <mxCell id="10nZllxXcGLsS7aEzpjF-26" value="" style="shape=curlyBracket;whiteSpace=wrap;html=1;rounded=1;labelPosition=left;verticalLabelPosition=middle;align=right;verticalAlign=middle;strokeWidth=2;" vertex="1" parent="1">
          <mxGeometry x="875" y="567.5" width="9.17" height="55" as="geometry" />
        </mxCell>
        <mxCell id="10nZllxXcGLsS7aEzpjF-40" style="edgeStyle=orthogonalEdgeStyle;rounded=0;orthogonalLoop=1;jettySize=auto;html=1;exitX=0.1;exitY=0.5;exitDx=0;exitDy=0;exitPerimeter=0;entryX=1;entryY=0.5;entryDx=0;entryDy=0;endArrow=none;endFill=0;strokeWidth=2;" edge="1" parent="1" source="10nZllxXcGLsS7aEzpjF-27" target="10nZllxXcGLsS7aEzpjF-6">
          <mxGeometry relative="1" as="geometry" />
        </mxCell>
        <mxCell id="10nZllxXcGLsS7aEzpjF-27" value="" style="shape=curlyBracket;whiteSpace=wrap;html=1;rounded=1;labelPosition=left;verticalLabelPosition=middle;align=right;verticalAlign=middle;strokeWidth=2;" vertex="1" parent="1">
          <mxGeometry x="970.84" y="440" width="9.16" height="55" as="geometry" />
        </mxCell>
        <mxCell id="10nZllxXcGLsS7aEzpjF-38" style="edgeStyle=orthogonalEdgeStyle;rounded=0;orthogonalLoop=1;jettySize=auto;html=1;exitX=0.1;exitY=0.5;exitDx=0;exitDy=0;exitPerimeter=0;entryX=0;entryY=0.5;entryDx=0;entryDy=0;endArrow=none;endFill=0;strokeWidth=2;" edge="1" parent="1" source="10nZllxXcGLsS7aEzpjF-30" target="10nZllxXcGLsS7aEzpjF-7">
          <mxGeometry relative="1" as="geometry" />
        </mxCell>
        <mxCell id="10nZllxXcGLsS7aEzpjF-30" value="" style="shape=curlyBracket;whiteSpace=wrap;html=1;rounded=1;flipH=1;labelPosition=right;verticalLabelPosition=middle;align=left;verticalAlign=middle;strokeWidth=2;" vertex="1" parent="1">
          <mxGeometry x="516.25" y="642.5" width="7.5" height="45" as="geometry" />
        </mxCell>
        <mxCell id="10nZllxXcGLsS7aEzpjF-59" style="edgeStyle=orthogonalEdgeStyle;rounded=0;orthogonalLoop=1;jettySize=auto;html=1;exitX=0.1;exitY=0.5;exitDx=0;exitDy=0;exitPerimeter=0;entryX=1;entryY=0;entryDx=0;entryDy=0;strokeWidth=2;endArrow=none;endFill=0;" edge="1" parent="1" source="10nZllxXcGLsS7aEzpjF-31" target="10nZllxXcGLsS7aEzpjF-2">
          <mxGeometry relative="1" as="geometry" />
        </mxCell>
        <mxCell id="10nZllxXcGLsS7aEzpjF-31" value="" style="shape=curlyBracket;whiteSpace=wrap;html=1;rounded=1;labelPosition=left;verticalLabelPosition=middle;align=right;verticalAlign=middle;strokeWidth=2;" vertex="1" parent="1">
          <mxGeometry x="700" y="292.5" width="8.33" height="50" as="geometry" />
        </mxCell>
        <mxCell id="10nZllxXcGLsS7aEzpjF-44" value="&lt;div style=&quot;text-align: left;&quot;&gt;&lt;span style=&quot;background-color: initial;&quot;&gt;Id: string&lt;/span&gt;&lt;/div&gt;&lt;div style=&quot;text-align: left;&quot;&gt;&lt;span style=&quot;background-color: initial;&quot;&gt;Nome: string&lt;/span&gt;&lt;/div&gt;" style="text;html=1;strokeColor=none;fillColor=none;align=center;verticalAlign=middle;whiteSpace=wrap;rounded=0;" vertex="1" parent="1">
          <mxGeometry x="658.33" y="107.5" width="90" height="70" as="geometry" />
        </mxCell>
        <mxCell id="10nZllxXcGLsS7aEzpjF-48" value="&lt;div style=&quot;&quot;&gt;&lt;span style=&quot;background-color: initial;&quot;&gt;Id: string&lt;/span&gt;&lt;/div&gt;&lt;div style=&quot;&quot;&gt;&lt;span style=&quot;background-color: initial;&quot;&gt;Nome: string&amp;nbsp;&lt;/span&gt;&lt;/div&gt;&lt;div style=&quot;&quot;&gt;&lt;span style=&quot;background-color: initial;&quot;&gt;Grupo_Id: string&lt;/span&gt;&lt;/div&gt;" style="text;html=1;strokeColor=none;fillColor=none;align=left;verticalAlign=middle;whiteSpace=wrap;rounded=0;" vertex="1" parent="1">
          <mxGeometry x="710" y="270" width="120" height="95" as="geometry" />
        </mxCell>
        <mxCell id="10nZllxXcGLsS7aEzpjF-51" value="&lt;div style=&quot;&quot;&gt;&lt;span style=&quot;background-color: initial;&quot;&gt;Id: string&lt;/span&gt;&lt;/div&gt;&lt;div style=&quot;&quot;&gt;&lt;span style=&quot;background-color: initial;&quot;&gt;Nome: string&lt;/span&gt;&lt;/div&gt;&lt;div style=&quot;&quot;&gt;Formula: string&lt;/div&gt;" style="text;html=1;strokeColor=none;fillColor=none;align=left;verticalAlign=middle;whiteSpace=wrap;rounded=0;" vertex="1" parent="1">
          <mxGeometry x="884.17" y="560" width="90" height="70" as="geometry" />
        </mxCell>
        <mxCell id="10nZllxXcGLsS7aEzpjF-54" value="&lt;div style=&quot;&quot;&gt;&lt;span style=&quot;background-color: initial;&quot;&gt;Id: string&lt;/span&gt;&lt;/div&gt;&lt;div style=&quot;&quot;&gt;&lt;span style=&quot;background-color: initial;&quot;&gt;Nome: string&lt;/span&gt;&lt;/div&gt;" style="text;html=1;strokeColor=none;fillColor=none;align=right;verticalAlign=middle;whiteSpace=wrap;rounded=0;" vertex="1" parent="1">
          <mxGeometry x="90" y="170" width="90" height="70" as="geometry" />
        </mxCell>
        <mxCell id="10nZllxXcGLsS7aEzpjF-55" value="&lt;div style=&quot;&quot;&gt;&lt;span style=&quot;background-color: initial;&quot;&gt;Id: string&lt;/span&gt;&lt;/div&gt;&lt;div style=&quot;&quot;&gt;&lt;span style=&quot;background-color: initial;&quot;&gt;Nome: string&lt;/span&gt;&lt;/div&gt;" style="text;html=1;strokeColor=none;fillColor=none;align=right;verticalAlign=middle;whiteSpace=wrap;rounded=0;" vertex="1" parent="1">
          <mxGeometry x="210.84" y="330" width="90" height="70" as="geometry" />
        </mxCell>
        <mxCell id="10nZllxXcGLsS7aEzpjF-56" value="&lt;div style=&quot;&quot;&gt;&lt;span style=&quot;background-color: initial;&quot;&gt;Id: string&lt;/span&gt;&lt;/div&gt;&lt;div style=&quot;&quot;&gt;&lt;span style=&quot;background-color: initial;&quot;&gt;Nome: string&lt;/span&gt;&lt;/div&gt;" style="text;html=1;strokeColor=none;fillColor=none;align=right;verticalAlign=middle;whiteSpace=wrap;rounded=0;" vertex="1" parent="1">
          <mxGeometry x="426.25" y="630" width="90" height="70" as="geometry" />
        </mxCell>
        <mxCell id="10nZllxXcGLsS7aEzpjF-57" value="&lt;div style=&quot;&quot;&gt;&lt;span style=&quot;background-color: initial;&quot;&gt;Id: string&lt;/span&gt;&lt;/div&gt;&lt;div style=&quot;&quot;&gt;&lt;span style=&quot;background-color: initial;&quot;&gt;Nome: string&lt;/span&gt;&lt;/div&gt;" style="text;html=1;strokeColor=none;fillColor=none;align=left;verticalAlign=middle;whiteSpace=wrap;rounded=0;" vertex="1" parent="1">
          <mxGeometry x="980" y="432.5" width="90" height="70" as="geometry" />
        </mxCell>
      </root>
    </mxGraphModel>
  </diagram>
</mxfile>
